<svg id="Layer_1" data-name="Layer 1" xmlns="http://www.w3.org/2000/svg" viewBox="0 0 376.3 364.9"><defs><style>.cls-1{fill:#fff;}</style></defs><path class="cls-1" d="M693.53,386.08a131.34,131.34,0,0,0-8.43-81.49c-5.75-12.89-13.83-25.18-25.49-33.13s-27.37-10.91-40.18-5c-9.11,4.21-16.18,12.45-25.81,15.26a25.83,25.83,0,0,1-28.77-11.56,180.77,180.77,0,0,0,29,75.24c6.11,9,14.74,18.36,25.65,18,8.07-.3,14.92-6,20.15-12.14s9.64-13.19,16.17-17.94c13.48-9.82,26.87-2.31,29.65,13.23,10.34,57.87-21.71,126-83.56,134,8.08-5.54,11.5-15.7,13.46-25.3s3.1-19.75,8.46-27.95,16.74-13.59,25.19-8.62a57.41,57.41,0,0,0-35.93-15.87c-6.45-.41-13.34.44-18.46,4.39-11.76,9.09-7.84,27.64-13.13,41.54-4.54,11.92-15.76,19.82-26.66,26.45-3.08,1.86-6.34,3.74-9.93,3.89a20.71,20.71,0,0,1-7.76-1.63c-18.35-6.57-36.42-16.3-51-29.39A111.2,111.2,0,0,0,515,371.86c-.31-16.93-4.48-34.24.14-50.53-.69,2.44-11,7.6-13.28,9.57a57.25,57.25,0,0,0-12.78,14.92c-5,8.79-5.49,18.59-5.81,28.53-.64,19.81,2.2,41.54-8.64,59.29a142.43,142.43,0,0,1,16.43-175.08,130.52,130.52,0,0,0-43.54,148.61c3.68,10.1,21,32.39,18.6,41.36-1.37,5.05-15.54,19.57-21.35,20.84a85.67,85.67,0,0,0,32.42-14.12c-.12.09,20.82,15.34,22.95,16.56a146,146,0,0,0,29.62,12.92c17.43,5.4,36.67,9.35,54.74,6.43C641.22,482,682.42,437.83,693.53,386.08Zm-83.62-52.21c-16.82-1.61-25.52-24.24-25.52-24.24,13,10.48,13.37,6.87,31-4.19,21.27-15.23,39-12.11,39-12.11C641.07,300.65,626.08,335,609.91,333.87Z" transform="translate(-363.62 -227.93)"/><path class="cls-1" d="M522.13,301.57c10.48,51.06,26.06,116.89-18.55,156.83,13.71-6.93,33.49-15.27,42.9-27.73,15.3-20.27,20.91-46.74,20.36-71.73-.49-22-5.39-43.56-11.16-64.69-2.7-9.88-5.71-18.84-5.15-29.2.26-4.62,4-26.83,10.93-26.93-14.34.2-29.23,6.49-36.71,18.72-6.73,11-6.58,25-4.06,37.61C521.16,296.79,521.64,299.17,522.13,301.57Z" transform="translate(-363.62 -227.93)"/><path class="cls-1" d="M627.84,237.38c4.55-7.4,9.09-8,9.09-8-16.48-3.37-19.36-1.7-34.27,13.61s-34.87,10.77-34.87,10.77C596.36,272.12,623.29,244.79,627.84,237.38Z" transform="translate(-363.62 -227.93)"/><path class="cls-1" d="M479.26,318.87A18.1,18.1,0,1,0,474,293.8,18.1,18.1,0,0,0,479.26,318.87Z" transform="translate(-363.62 -227.93)"/><circle class="cls-1" cx="551.18" cy="517.42" r="18.11" transform="matrix(0.28, -0.96, 0.96, 0.28, -464.26, 672.45)"/><circle class="cls-1" cx="507.1" cy="505.95" r="18.11" transform="translate(-557.61 425.07) rotate(-56.78)"/><polygon class="cls-1" points="58.06 347.43 53.57 347.43 37.91 311.23 22.26 347.43 17.62 347.43 0 306.19 4.47 306.19 20.02 342.72 35.85 306.19 40.06 306.19 55.88 342.88 71.21 306.19 75.76 306.19 58.06 347.43"/><polygon class="cls-1" points="250.31 331.51 250.31 347.43 246 347.43 246 331.51 221.7 306.19 227.43 306.19 248.26 327.87 268.95 306.19 274.6 306.19 250.31 331.51"/><path class="cls-1" d="M739.92,575.36H716.05c.31,6.34,2,12.54,6.26,17.38.26.3-.21-.2-.28-.28l-1-1.11a26.83,26.83,0,0,1-6.13-14.21c-.08-.59-.15-1.19-.2-1.78H693.91v-3.44L717.06,552l2.06-1.76,14.36-12.35h-38v-3.8H718.6a36.43,36.43,0,0,0-.56-4.27,29.75,29.75,0,0,0-2.06-6.58,23.31,23.31,0,0,0-1.64-3c-.33-.51-.67-1-1-1.48-.15-.2-.31-.39-.46-.58s-.12-.13-.18-.19l-.1-.11-.58-.63-.44-.49s-.17-.19-.07-.09a29.6,29.6,0,0,1,5.18,6.61,28.16,28.16,0,0,1,2.72,7.46c.24,1.12.42,2.25.56,3.38h19.7v3.72L718,556.47l-2.1,1.8-15.43,13.29h39.44Z" transform="translate(-363.62 -227.93)"/><path class="cls-1" d="M509.42,534.12h-5.05l-24.06,41.24H485l5.41-9.4h32.52l5.27,9.4H533ZM492.55,562.3l14.31-24.66,14,24.66Z" transform="translate(-363.62 -227.93)"/></svg>